<svg xmlns="http://www.w3.org/2000/svg" xmlns:xlink="http://www.w3.org/1999/xlink" viewBox="0,0,256,256" width="96px" height="96px"><g transform="translate(46.08,46.08) scale(0.64,0.64)"><g fill="none" fill-rule="nonzero" stroke="#f03333" stroke-width="10.66667" stroke-linecap="butt" stroke-linejoin="miter" stroke-miterlimit="10" stroke-dasharray="" stroke-dashoffset="0" font-family="none" font-weight="none" font-size="none" text-anchor="none" style="mix-blend-mode: normal"><path d="M126.44894,283.10638c-84.80626,0 -153.55532,-68.74906 -153.55532,-153.55532v-3.10213c0,-84.80626 68.74906,-153.55532 153.55532,-153.55532h3.10213c84.80626,0 153.55532,68.74906 153.55532,153.55532v3.10213c0,84.80626 -68.74906,153.55532 -153.55532,153.55532z" id="shape"></path></g><g fill="#ff0000" fill-rule="nonzero" stroke="none" stroke-width="1" stroke-linecap="butt" stroke-linejoin="miter" stroke-miterlimit="10" stroke-dasharray="" stroke-dashoffset="0" font-family="none" font-weight="none" font-size="none" text-anchor="none" style="mix-blend-mode: normal"><g transform="scale(10.66667,10.66667)"><path d="M10,2l-1,1h-5v2h1v15c0,0.52222 0.19133,1.05461 0.56836,1.43164c0.37703,0.37703 0.90942,0.56836 1.43164,0.56836h10c0.52222,0 1.05461,-0.19133 1.43164,-0.56836c0.37703,-0.37703 0.56836,-0.90942 0.56836,-1.43164v-15h1v-2h-5l-1,-1zM7,5h10v15h-10zM9,7v11h2v-11zM13,7v11h2v-11z"></path></g></g></g></svg>